Coordinates
version=1
nRows=13
nColumns=38
inDegrees=no

Units are S.I. units (second, meters, Newtons, ...)
If the header above contains a line with 'inDegrees', this indicates whether rotational values are in degrees (yes) or radians (no).

endheader
time	pelvis_tilt	pelvis_list	pelvis_rotation	pelvis_tx	pelvis_ty	pelvis_tz	hip_flexion_r	hip_adduction_r	hip_rotation_r	knee_angle_r	ankle_angle_r	subtalar_angle_r	mtp_angle_r	hip_flexion_l	hip_adduction_l	hip_rotation_l	knee_angle_l	ankle_angle_l	subtalar_angle_l	mtp_angle_l	lumbar_extension	lumbar_bending	lumbar_rotation	arm_flex_r	arm_add_r	arm_rot_r	elbow_flex_r	pro_sup_r	wrist_flex_r	wrist_dev_r	arm_flex_l	arm_add_l	arm_rot_l	elbow_flex_l	pro_sup_l	wrist_flex_l	wrist_dev_l
2.8075	0.0516667	0.00264961	-2.73791	-0.271441	0.992869	-0.0977144	0.0287977	0.009281	-0.667641	0.247735	0.236626	0	0	0.66139	-0.12078	0.468783	0.792959	-0.585443	0	0	-0.0976218	-0.185411	0.636416	0.598874	-0.522978	1.34206	1.86264	1.2459	0	0	-0.531753	-0.473055	-0.577912	0.791267	0.47614	0	0
2.8175	0.0504547	0.00206967	-2.74626	-0.272505	0.993047	-0.100897	0.0283536	0.0123219	-0.659756	0.247549	0.235799	0	0	0.66433	-0.118568	0.482746	0.797979	-0.60749	0	0	-0.0954913	-0.190163	0.642762	0.587509	-0.523852	1.33636	1.86195	1.24727	0	0	-0.5305	-0.475647	-0.579914	0.770192	0.451222	0	0
2.82749	0.0490355	0.00167313	-2.75545	-0.273553	0.993223	-0.104022	0.0277576	0.0154999	-0.650992	0.247334	0.234814	0	0	0.666282	-0.116782	0.497089	0.802516	-0.627488	0	0	-0.0932866	-0.194367	0.649028	0.576861	-0.524935	1.33057	1.8615	1.24869	0	0	-0.528425	-0.477346	-0.581938	0.750655	0.428588	0	0
2.83748	0.0474254	0.00147282	-2.76553	-0.27458	0.993398	-0.107096	0.0270338	0.0188144	-0.641368	0.247111	0.233675	0	0	0.667247	-0.115497	0.511623	0.806641	-0.64521	0	0	-0.0909858	-0.198002	0.655243	0.566944	-0.526224	1.32471	1.86126	1.25008	0	0	-0.5255	-0.478096	-0.584117	0.732819	0.408015	0	0
2.84747	0.0456474	0.00147991	-2.77652	-0.275587	0.993571	-0.110125	0.026211	0.022259	-0.630906	0.2469	0.232386	0	0	0.667236	-0.114785	0.526136	0.810427	-0.660468	0	0	-0.088559	-0.201054	0.661399	0.557763	-0.527683	1.31886	1.86119	1.25134	0	0	-0.521752	-0.47783	-0.586657	0.716932	0.389476	0	0
2.85746	0.0437286	0.0016998	-2.78845	-0.276573	0.993741	-0.113112	0.0253186	0.0258186	-0.619632	0.246724	0.230959	0	0	0.666275	-0.114702	0.540404	0.813945	-0.673136	0	0	-0.0859774	-0.20352	0.66745	0.549332	-0.529249	1.31308	1.86121	1.25236	0	0	-0.517248	-0.476466	-0.58984	0.703318	0.373173	0	0
2.86745	0.0416971	0.00213008	-2.80131	-0.277535	0.993911	-0.116062	0.0243825	0.0294692	-0.60758	0.246604	0.229407	0	0	0.664392	-0.115281	0.554195	0.817266	-0.683198	0	0	-0.0832204	-0.205405	0.673316	0.541677	-0.530845	1.30745	1.86125	1.25306	0	0	-0.51207	-0.473917	-0.594017	0.692344	0.359508	0	0
2.87744	0.0395797	0.00276104	-2.81508	-0.278471	0.99408	-0.118976	0.0234232	0.03318	-0.594797	0.246557	0.227749	0	0	0.661628	-0.116538	0.567282	0.820449	-0.690794	0	0	-0.0802804	-0.20672	0.678889	0.534833	-0.532387	1.30209	1.86122	1.25343	0	0	-0.506296	-0.470091	-0.599585	0.684395	0.349047	0	0
2.88743	0.0374005	0.00357761	-2.82971	-0.279378	0.99425	-0.121855	0.0224553	0.0369174	-0.581349	0.246599	0.226006	0	0	0.658034	-0.118464	0.579448	0.823541	-0.696216	0	0	-0.0771634	-0.207485	0.684032	0.528838	-0.53379	1.29711	1.86106	1.25351	0	0	-0.499983	-0.464907	-0.60695	0.679839	0.342456	0	0
2.89742	0.0351804	0.00456159	-2.84513	-0.280251	0.994424	-0.124699	0.0214863	0.0406495	-0.567326	0.246737	0.224197	0	0	0.653671	-0.121031	0.590499	0.826582	-0.699827	0	0	-0.0738893	-0.207719	0.688593	0.523722	-0.534972	1.29259	1.86071	1.25337	0	0	-0.493148	-0.458314	-0.616483	0.679009	0.340418	0	0
2.90742	0.0329341	0.00569178	-2.86124	-0.281083	0.994604	-0.127506	0.0205131	0.0443492	-0.552834	0.246965	0.222338	0	0	0.648602	-0.124197	0.600266	0.829604	-0.702008	0	0	-0.0704926	-0.20745	0.692408	0.519513	-0.535852	1.28866	1.86012	1.25308	0	0	-0.485759	-0.450294	-0.628464	0.682177	0.343481	0	0
2.91741	0.0306691	0.00694384	-2.87792	-0.28187	0.994791	-0.130274	0.0195203	0.0479913	-0.538	0.247269	0.22044	0	0	0.642894	-0.127904	0.608616	0.832625	-0.703127	0	0	-0.0670238	-0.206704	0.695311	0.516218	-0.536365	1.28537	1.85925	1.2527	0	0	-0.477722	-0.440886	-0.643024	0.689535	0.351975	0	0
2.9274	0.0283845	0.00829115	-2.89503	-0.282605	0.994989	-0.132996	0.0184834	0.0515524	-0.522959	0.247626	0.218512	0	0	0.636609	-0.132086	0.615453	0.835648	-0.703509	0	0	-0.0635471	-0.205508	0.697148	0.513823	-0.536466	1.28279	1.8581	1.25225	0	0	-0.468871	-0.430192	-0.660104	0.701186	0.365923	0	0
